<?xml version="1.0" standalone="no"?><!DOCTYPE svg PUBLIC "-//W3C//DTD SVG 1.1//EN" "http://www.w3.org/Graphics/SVG/1.1/DTD/svg11.dtd"><svg class="icon" height="512" viewBox="0 0 1024 1024" version="1.1" xmlns="http://www.w3.org/2000/svg"><path d="M642.4 491.1l248.3-215.5 36.6-177.8L750.1 135 542.4 377.7zM678.1 591.2l40.4-40.5 55.8 55.8-41.8 41.8L844 759.8l27.9-27.9 55.7 55.8-139.4 139.4-55.7-55.8 27.9-27.8-111.6-111.6-41.8 41.9-55.7-55.8 43-43-78.9-68.6-81.2 71.5 40.5 40.4-55.8 55.8-41.8-41.8-111.5 111.5 27.9 27.9-55.8 55.7L98.3 788l55.8-55.7 27.9 27.8 111.5-111.5-41.9-41.8 55.8-55.7 43 42.9 65.1-74.7-280.3-244L98 98.1l177.8 36.6z" /></svg>